<?xml version="1.0" encoding="UTF-8" standalone="no"?><!DOCTYPE svg PUBLIC "-//W3C//DTD SVG 1.1//EN" "http://www.w3.org/Graphics/SVG/1.1/DTD/svg11.dtd"><svg width="100%" height="100%" viewBox="0 0 2130 2138" version="1.1" xmlns="http://www.w3.org/2000/svg" xmlns:xlink="http://www.w3.org/1999/xlink" xml:space="preserve" xmlns:serif="http://www.serif.com/" style="fill-rule:evenodd;clip-rule:evenodd;stroke-linejoin:round;stroke-miterlimit:2;"><g id="Layer1"><g><path d="M814.445,1871.42l-80.199,-297.979l-536.598,-392.993c0,-0 239.002,-285.444 236.61,-285.405c-2.393,0.039 -123.427,-143.576 -123.427,-143.576l113.74,-716.593l480.483,530.489l-103.674,18.382l-315.226,-347.789l-72.376,485.843l111.172,144.944l-209.205,288.167l225.579,163.004l2.174,-179.392l273.671,266.835l76.623,425.657l170.791,129.961l170.792,-129.961l76.622,-425.657l273.671,-266.835l2.175,179.392l225.578,-163.004l-209.204,-288.167l111.172,-144.944l-72.377,-485.843l-315.225,347.789l-103.674,-18.382l480.483,-530.489l113.74,716.593c-0,-0 -121.034,143.615 -123.427,143.576c-2.392,-0.039 236.609,285.405 236.609,285.405l-536.598,392.993l-80.198,297.979l-250.139,231.196l-250.138,-231.196Zm357.736,-214.822l30.172,68.964l-137.77,102.151l-137.769,-102.151l30.172,-68.964l107.597,-4.729l107.598,4.729Zm-789.766,-221.985l338.465,366.017l-115.856,-266.994l-222.609,-99.023Zm1364.34,-0l-338.465,366.017l115.856,-266.994l222.609,-99.023Zm-205.047,-922.899l-59.888,241.65l-42.747,70.887l123.932,137.833l-327.634,163.809l-84.009,136.473l-26.208,-215.633l416.554,-535.019Zm-954.243,-0l59.888,241.65l42.747,70.887l-123.932,137.833l327.634,163.809l84.009,136.473l26.208,-215.633l-416.554,-535.019Zm864.87,557.031l-65.723,155.871l-132.777,2.081l35.088,-76.771l163.412,-81.181Zm-775.497,0l65.723,155.871l132.777,2.081l-35.089,-76.771l-163.411,-81.181Z" style="fill:#fc0c6e;"/></g></g></svg>